<?xml version="1.0" encoding="UTF-8" standalone="no"?>
<!-- Created with Inkscape (http://www.inkscape.org/) -->

<svg
   width="200"
   height="200"
   viewBox="0 0 52.916668 52.916666"
   version="1.1"
   id="svg1"
   inkscape:version="1.3 (0e150ed6c4, 2023-07-21)"
   sodipodi:docname="facebook.svg"
   inkscape:export-filename="facebook.svg"
   inkscape:export-xdpi="96"
   inkscape:export-ydpi="96"
   xmlns:inkscape="http://www.inkscape.org/namespaces/inkscape"
   xmlns:sodipodi="http://sodipodi.sourceforge.net/DTD/sodipodi-0.dtd"
   xmlns="http://www.w3.org/2000/svg"
   xmlns:svg="http://www.w3.org/2000/svg">
  <sodipodi:namedview
     id="namedview1"
     pagecolor="#505050"
     bordercolor="#eeeeee"
     borderopacity="1"
     inkscape:showpageshadow="0"
     inkscape:pageopacity="0"
     inkscape:pagecheckerboard="0"
     inkscape:deskcolor="#505050"
     inkscape:document-units="mm"
     inkscape:clip-to-page="true"
     inkscape:zoom="1.0520974"
     inkscape:cx="251.40259"
     inkscape:cy="99.800651"
     inkscape:window-width="1640"
     inkscape:window-height="1212"
     inkscape:window-x="2352"
     inkscape:window-y="149"
     inkscape:window-maximized="0"
     inkscape:current-layer="g1" />
  <defs
     id="defs1">
    <rect
       x="3.8019295"
       y="4.7524118"
       width="198.65082"
       height="196.74985"
       id="rect3" />
  </defs>
  <g
     inkscape:label="Layer 1"
     inkscape:groupmode="layer"
     id="layer1">
    <g
       inkscape:label="Facebook_F_icon.svg"
       transform="matrix(0.1328405,0,0,0.20798252,-13.164589,13.588897)"
       id="g1">
      <path
         id="Blue_1_"
         fill="#157dc3"
         d="m 451.33824,172.823 c 10.22141,0 18.37264,-5.31894 18.37264,-11.80141 V -29.546243 c 0,-6.565572 -8.28062,-11.801408 -18.37264,-11.801408 H 154.65907 c -10.09201,0 -18.37263,5.318945 -18.37263,11.801408 V 161.02159 c 0,6.56557 8.28062,11.80141 18.37263,11.80141 z"
         style="fill:#2c3da0;fill-opacity:1;stroke-width:1.03696" />
      <path
         id="f"
         fill="#ffffff"
         d="M 367.75846,170.40471 V 87.150365 h 32.94173 l 4.91668,-32.450842 H 367.75846 V 34.011071 c 0,-9.426593 3.04834,-15.766603 18.97837,-15.766603 h 20.25671 v -29.113992 c -3.54001,-0.417106 -15.5367,-1.251317 -29.50006,-1.251317 -29.20505,0 -49.16676,15.0992334 -49.16676,42.878485 v 23.941879 h -33.04007 v 32.450842 h 33.04007 v 83.254345 z"
         style="stroke-width:0.905708" />
    </g>
  </g>
</svg>
