<?xml version="1.0" encoding="UTF-8" standalone="no"?>
<!-- Created with Inkscape (http://www.inkscape.org/) -->

<svg
   width="200"
   height="200"
   viewBox="0 0 52.916665 52.916666"
   version="1.1"
   id="svg1"
   inkscape:version="1.3 (0e150ed6c4, 2023-07-21)"
   sodipodi:docname="instagram.svg"
   xmlns:inkscape="http://www.inkscape.org/namespaces/inkscape"
   xmlns:sodipodi="http://sodipodi.sourceforge.net/DTD/sodipodi-0.dtd"
   xmlns="http://www.w3.org/2000/svg"
   xmlns:svg="http://www.w3.org/2000/svg">
  <sodipodi:namedview
     id="namedview1"
     pagecolor="#505050"
     bordercolor="#eeeeee"
     borderopacity="1"
     inkscape:showpageshadow="0"
     inkscape:pageopacity="0"
     inkscape:pagecheckerboard="0"
     inkscape:deskcolor="#505050"
     inkscape:document-units="mm"
     inkscape:zoom="1.4878904"
     inkscape:cx="189.86614"
     inkscape:cy="26.883701"
     inkscape:window-width="1540"
     inkscape:window-height="1212"
     inkscape:window-x="2443"
     inkscape:window-y="88"
     inkscape:window-maximized="0"
     inkscape:current-layer="g7"
     inkscape:clip-to-page="true" />
  <defs
     id="defs1" />
  <g
     inkscape:label="Layer 1"
     inkscape:groupmode="layer"
     id="layer1">
    <g
       inkscape:label="CIS-A2K_Instagram_Icon_%28Black%29.svg"
       transform="matrix(0.08664378,0,0,0.08664378,0.44484805,0.44484805)"
       id="g7">
      <path
         d="m 300.42506,34.664966 c -72.99317,0 -82.28875,0.297634 -110.93743,1.636992 -28.64868,1.339358 -48.15417,5.655066 -65.22146,12.203037 -17.67684,6.696789 -32.763121,15.625846 -47.697001,30.35878 -14.933882,14.584113 -24.077074,29.317045 -31.086857,46.579895 -6.705008,16.66756 -11.276609,35.86501 -12.4957,63.69389 -1.219092,27.97769 -1.676255,36.90675 -1.676255,108.33917 0,71.2836 0.304775,80.21264 1.676255,108.33915 1.371479,27.9777 5.790692,47.02635 12.4957,63.69391 6.857395,17.26283 16.000586,31.99576 31.086857,46.57988 14.93388,14.58412 30.020161,23.66199 47.697001,30.35879 17.06729,6.54796 36.72517,10.86367 65.22146,12.20303 28.64868,1.33936 37.79187,1.63699 110.93743,1.63699 72.99317,0 82.13637,-0.29763 110.93743,-1.63699 28.64868,-1.33936 48.15417,-5.65507 65.37384,-12.20303 17.67684,-6.6968 32.61074,-15.77467 47.54462,-30.35879 14.93388,-14.58412 24.07707,-29.31705 31.08686,-46.57988 6.55263,-16.66756 11.12422,-35.71621 12.49569,-63.69391 1.21909,-27.97769 1.67626,-36.90674 1.67626,-108.33915 0,-71.2836 -0.30477,-80.21266 -1.67626,-108.33917 -1.37147,-27.9777 -5.94306,-47.02633 -12.49569,-63.69389 C 548.51041,108.18082 539.21483,93.447888 524.28095,78.863775 509.34707,64.27965 494.41317,55.350602 476.58394,48.504995 459.36426,41.957024 439.85878,37.641316 411.21011,36.301958 382.56143,34.9626 373.41823,34.664966 300.42506,34.664966 Z m -24.07708,47.323975 h 24.07708 c 71.77408,0 80.30773,0.297629 108.65163,1.488167 26.21049,1.190539 40.38244,5.506255 49.9828,9.077882 12.4957,4.762154 21.48652,10.41722 30.93448,19.64392 9.44797,9.22668 15.23866,18.00691 20.11502,30.20996 3.65728,9.22667 8.07649,23.21553 9.29558,48.81214 1.21909,27.68006 1.52387,36.01384 1.52387,106.1069 0,70.09306 -0.30478,78.42683 -1.52387,106.10689 -1.21909,25.59661 -5.6383,39.43665 -9.29558,48.81216 -4.87636,12.20303 -13.03551,24.68299 -22.48348,33.90968 -9.44796,9.22668 -15.91793,11.18203 -28.56602,15.94418 -9.44796,3.57163 -23.77231,7.88733 -49.9828,9.07787 -28.3439,1.19054 -36.87755,1.48818 -108.65163,1.48818 -71.77408,0 -80.30772,-0.29764 -108.65163,-1.48818 -26.21049,-1.19054 -40.38244,-5.50624 -49.9828,-9.07787 -12.4957,-4.76215 -21.4865,-10.41723 -30.93448,-19.6439 -9.44797,-9.2267 -15.238661,-18.00693 -20.115021,-30.20996 -3.65728,-9.22669 -8.076492,-23.21555 -9.295584,-48.81216 -1.219091,-27.68006 -1.523866,-36.01383 -1.523866,-106.10689 0,-70.09306 0.304775,-78.42684 1.523866,-106.1069 1.219092,-25.59661 5.638304,-39.43665 9.295584,-48.81214 4.87636,-12.20305 10.667051,-20.98328 20.115021,-30.20996 9.44798,-9.2267 18.43878,-14.881766 30.93448,-19.64392 9.44796,-3.571627 23.77231,-7.887343 49.9828,-9.077882 24.83902,-1.190538 34.43937,-1.488167 84.57455,-1.488167 z m 167.62524,43.603549 c -17.82922,0 -31.88728,13.70164 -31.88728,31.11329 0,17.41165 14.05806,31.98533 31.88728,31.98533 17.82923,0 33.14334,-14.57368 33.14334,-31.98533 0,-17.41165 -15.31411,-31.11329 -33.14334,-31.11329 z m -143.54816,36.90673 c -76.34568,0 -138.06224,60.41992 -138.06224,134.82869 0,74.55757 61.86895,134.82868 138.06224,134.82868 76.34568,0 135.55011,-60.41993 135.55011,-134.82868 0,-74.55758 -59.20443,-134.82869 -135.55011,-134.82869 z m 0,47.32398 c 49.52564,0 90.44069,38.26699 90.44069,86.63268 0,48.36569 -40.91505,88.37673 -90.44069,88.37673 -49.52564,0 -89.6033,-39.13901 -89.6033,-87.5047 0,-48.36569 40.07766,-87.50471 89.6033,-87.50471 z"
         style="fill:#1c1c1c;fill-opacity:1;stroke-width:1.50591"
         id="path7"
         sodipodi:nodetypes="ssccccscccccsccsccsccscssssccsccsccsccsccsccsccsccssssssssssssssss" />
    </g>
  </g>
</svg>
