<?xml version="1.0" encoding="UTF-8" standalone="no"?>
<!-- Created with Inkscape (http://www.inkscape.org/) -->

<svg
   width="200"
   height="200"
   viewBox="0 0 49.025279 49.025279"
   version="1.1"
   id="svg1"
   inkscape:version="1.3 (0e150ed6c4, 2023-07-21)"
   sodipodi:docname="LogoHBC.svg"
   xmlns:inkscape="http://www.inkscape.org/namespaces/inkscape"
   xmlns:sodipodi="http://sodipodi.sourceforge.net/DTD/sodipodi-0.dtd"
   xmlns="http://www.w3.org/2000/svg"
   xmlns:svg="http://www.w3.org/2000/svg">
  <sodipodi:namedview
     id="namedview1"
     pagecolor="#505050"
     bordercolor="#eeeeee"
     borderopacity="1"
     inkscape:showpageshadow="0"
     inkscape:pageopacity="0"
     inkscape:pagecheckerboard="0"
     inkscape:deskcolor="#505050"
     inkscape:document-units="px"
     inkscape:clip-to-page="true"
     inkscape:zoom="2.9354653"
     inkscape:cx="81.077436"
     inkscape:cy="124.00078"
     inkscape:window-width="1493"
     inkscape:window-height="1212"
     inkscape:window-x="2464"
     inkscape:window-y="128"
     inkscape:window-maximized="0"
     inkscape:current-layer="layer1" />
  <defs
     id="defs1">
    <rect
       x="19.270724"
       y="52.994492"
       width="157.0564"
       height="92.499476"
       id="rect15" />
  </defs>
  <g
     inkscape:label="Layer 1"
     inkscape:groupmode="layer"
     id="layer1">
    <path
       sodipodi:type="star"
       style="fill:#ffffff;stroke-width:0.245126"
       id="path4"
       inkscape:flatsided="true"
       sodipodi:sides="6"
       sodipodi:cx="23.855003"
       sodipodi:cy="23.146441"
       sodipodi:r1="22.439117"
       sodipodi:r2="19.432846"
       sodipodi:arg1="-1.5602704"
       sodipodi:arg2="-1.0366716"
       inkscape:rounded="0"
       inkscape:randomized="0"
       d="M 24.091192,0.70856614 43.404867,12.132048 43.168678,34.569923 23.618815,45.584315 4.3051401,34.160833 4.5413282,11.722958 Z"
       transform="translate(0.23618816,1.1809408)" />
    <text
       xml:space="preserve"
       transform="scale(0.2451264)"
       id="text15"
       style="font-style:normal;font-variant:normal;font-weight:normal;font-stretch:normal;font-size:32px;font-family:Arial;-inkscape-font-specification:Arial;white-space:pre;shape-inside:url(#rect15);display:inline;fill:#ffffff" />
    <text
       xml:space="preserve"
       style="font-style:normal;font-variant:normal;font-weight:bold;font-stretch:normal;font-size:20.7856px;font-family:Arial;-inkscape-font-specification:'Arial Bold';fill:#3a3a3a;fill-opacity:1;stroke-width:0.649549"
       x="8.5673227"
       y="26.281561"
       id="text16"
       transform="scale(0.7797356,1.282486)"><tspan
         sodipodi:role="line"
         id="tspan15"
         style="font-style:normal;font-variant:normal;font-weight:bold;font-stretch:normal;font-family:Arial;-inkscape-font-specification:'Arial Bold';fill:#3a3a3a;fill-opacity:1;stroke-width:0.649549"
         x="8.5673227"
         y="26.281561">HBC</tspan></text>
    <path
       id="path24"
       style="fill:#3a3a3a;fill-opacity:1;stroke-width:0.245126"
       d="M 22.128881,6.0122994 11.156124,12.163919 c 0.0095,0.02591 0.01395,0.05833 0.01005,0.09719 -0.0083,0.08321 -0.01053,0.166833 -0.01293,0.250393 -0.0026,0.105675 -0.0035,0.211238 -0.0043,0.316941 -5.51e-4,0.08131 -8.25e-4,0.162859 -9.57e-4,0.244169 -0.0021,0.06856 8.04e-4,0.13664 0.0067,0.20491 0.0025,0.05078 0.0094,0.10061 0.01676,0.15081 0.0049,0.03402 0.0077,0.06854 0.01005,0.102934 l 24.725689,0.247042 0.0833,-2.338276 -8.099703,-4.6760735 -1.419531,1.5866189 z" />
    <path
       id="path24-4"
       style="fill:#3a3a3a;fill-opacity:1;stroke-width:0.254184"
       d="M 25.941177,43.314004 36.812548,36.53402 c -0.0099,-0.02771 -0.0149,-0.0625 -0.01163,-0.104342 0.0069,-0.08959 0.0078,-0.179529 0.0089,-0.269404 8.8e-4,-0.113656 6.1e-5,-0.227165 -8.59e-4,-0.340823 -7.73e-4,-0.08743 -0.0018,-0.17511 -0.003,-0.262532 9.84e-4,-0.07374 -0.003,-0.146896 -0.01003,-0.220206 -0.0033,-0.05456 -0.01104,-0.108028 -0.01921,-0.16189 -0.0055,-0.0365 -0.0088,-0.07358 -0.01172,-0.110516 l -24.726877,0.108678 -0.04523,2.515248 8.174887,4.90485 1.393543,-1.727335 z" />
    <path
       style="fill:#3a3a3a;fill-opacity:1;stroke-width:0.245126"
       d="m 5.7618536,18.621643 c 4.2587614,2.672164 4.2587614,2.672164 4.2587614,2.672164 z"
       id="path27" />
  </g>
</svg>
